<?xml version="1.0" encoding="UTF-8"?>
<svg version="1.1" viewBox="0 0 666.23 184" xmlns="http://www.w3.org/2000/svg">
<circle cx="92" cy="92" r="92" fill="#2e96d3"/>
<line x1="44.18" x2="105.88" y1="142.56" y2="80.87" fill="#dbbe23" stroke="#dbbe23" stroke-miterlimit="10" stroke-width="4px"/>
<line x1="80" x2="80" y1="107" y2="34.5" fill="#dbbe23" stroke="#dbbe23" stroke-miterlimit="10" stroke-width="4px"/>
<line x1="105.52" x2="152.98" y1="80.5" y2="80.5" fill="#dbbe23" stroke="#dbbe23" stroke-miterlimit="10" stroke-width="4px"/>
<circle cx="80" cy="34.5" r="8" fill="#dbbe23"/>
<circle cx="106.25" cy="80.87" r="7" fill="#dbbe23"/>
<circle cx="152.25" cy="80.87" r="7" fill="#dbbe23"/>
<circle cx="44.18" cy="141.47" r="7" fill="#dbbe23"/>
<path d="m237.85 65.33v49.26h-6.91v-49.26z" fill="#2e96d3"/>
<path d="m308.44 65.33v50.9h-0.21l-37.83-36.73 0.15 35.09h-7v-50.76h0.35l37.75 37.13-0.14-35.63z" fill="#2e96d3"/>
<path d="m364.57 65.33v6.34h-13.79v42.92h-6.91v-42.92h-13.49v-6.34z" fill="#2e96d3"/>
<path d="m419.99 65.33v6.34h-26.57v15h23.72v6.33h-23.72v15.2h27.56v6.4h-34.47v-49.27z" fill="#2e96d3"/>
<path d="m472.27 114.59-12.11-18.19c-0.38 0-1 0.07-1.71 0.07h-7.62v18.12h-6.91v-49.26h13.75a23.69 23.69 0 0 1 9.4 1.77 14.66 14.66 0 0 1 6.48 5.21 14.33 14.33 0 0 1 2.35 8.28 17.06 17.06 0 0 1-2.1 8.38 13.36 13.36 0 0 1-6.45 5.79l13 19.83zm-6-27.32a9.42 9.42 0 0 0 2.46-6.41 9.68 9.68 0 0 0-1-4.29 8.5 8.5 0 0 0-3.27-3.51 10.58 10.58 0 0 0-5.68-1.39h-8v18.39h7.48q5.6 0 8.06-2.79z" fill="#2e96d3"/>
<path d="m501.04 77.46a26.51 26.51 0 0 1 9.58-9.23 26.76 26.76 0 0 1 26.25 0 26.55 26.55 0 0 1 9.65 9.23 23.3 23.3 0 0 1 3.6 12.53 23.65 23.65 0 0 1-3.56 12.61 25.82 25.82 0 0 1-9.65 9.16 27.45 27.45 0 0 1-26.32 0 25.4 25.4 0 0 1-9.58-9.1 23.87 23.87 0 0 1-3.53-12.71 23.53 23.53 0 0 1 3.56-12.49zm6.13 21.94a18.81 18.81 0 0 0 7 6.81 20 20 0 0 0 19.37 0 18.71 18.71 0 0 0 6.87-25.72 18.73 18.73 0 0 0-7-6.88 19.18 19.18 0 0 0-9.68-2.52 18.92 18.92 0 0 0-9.65 2.58 18.77 18.77 0 0 0-9.47 16.38 17.88 17.88 0 0 0 2.56 9.35z" fill="#2e96d3"/>
<path d="m604.78 69.35q4.74 4 4.74 11.24a17.69 17.69 0 0 1-1.75 7.77 13.55 13.55 0 0 1-5.63 5.86 19.27 19.27 0 0 1-9.79 2.25h-7.57v18.12h-6.91v-49.26h13.82q8.36 0 13.09 4.02zm-6.41 19.21a8.74 8.74 0 0 0 3.31-3.64 9.84 9.84 0 0 0 1-4.19 9.3 9.3 0 0 0-2.42-6.3c-1.62-1.84-4.13-2.76-7.55-2.76h-8v18.39h7.62a10.89 10.89 0 0 0 6.05-1.5z" fill="#2e96d3"/>
<path d="m657.04 71.8a21.79 21.79 0 0 0-5.92-0.88 11.05 11.05 0 0 0-6.66 1.8 6 6 0 0 0 0.43 9.95 38.39 38.39 0 0 0 8.23 3.85 38.11 38.11 0 0 1 6.73 3 13.49 13.49 0 0 1 4.56 4.43 13.09 13.09 0 0 1 1.81 7.19 12.85 12.85 0 0 1-2.06 7.15 14.11 14.11 0 0 1-5.88 5.05 20.44 20.44 0 0 1-8.94 1.84 28.94 28.94 0 0 1-9.19-1.47 31.91 31.91 0 0 1-7.76-3.71l3.06-5.25a25.61 25.61 0 0 0 6.34 3.24 20.73 20.73 0 0 0 6.91 1.33 12.75 12.75 0 0 0 7.23-2.05 6.77 6.77 0 0 0 3.1-6.06 6.51 6.51 0 0 0-2.6-5.42 28.49 28.49 0 0 0-7.3-3.78 59 59 0 0 1-7.23-3.07 15 15 0 0 1-5-4.12 10.28 10.28 0 0 1-2.07-6.57 11.68 11.68 0 0 1 4.24-9.37 17.29 17.29 0 0 1 11-3.78 31.38 31.38 0 0 1 15.45 3.95l-2.63 5.11a31.86 31.86 0 0 0-5.85-2.36z" fill="#2e96d3"/>
</svg>
