<svg xmlns="http://www.w3.org/2000/svg" xmlns:xlink="http://www.w3.org/1999/xlink" viewBox="0 0 101 120">
  <g>
    <mask id="b" fill="#fff">
      <path id="a" d="M54.623435 1.73047191l42.5 25.56299289C99.5288408 28.7402736 101 31.3419242 101 34.1489213v51.7021574c0 2.8069971-1.4711592 5.4086477-3.876565 6.8554565l-42.5 25.5629928c-2.5371624 1.526058-5.7097076 1.526058-8.24687 0L3.87656503 92.7065352C1.47115919 91.2597264 0 88.6580758 0 85.8510787V34.1489213c0-2.8069971 1.47115919-5.4086477 3.87656503-6.8554565L46.376565 1.73047191c2.5371624-1.52605798 5.7097076-1.52605798 8.24687 0z"/>
    </mask>
    <use fill="#4100E1" xlink:href="#a"/>
    <path fill="#000" fill-opacity=".2" d="M117.315385 120.11932L33.3003285 63.1168831l-52.7234054 57.6623379z" mask="url(#b)" style="mix-blend-mode:overlay"/>
    <path fill="#FFF" fill-opacity=".8" d="M117.315385 120L33.4076923 63.0247948 49.0335237.77922078z" mask="url(#b)" style="mix-blend-mode:overlay"/>
    <path fill="#FFF" fill-opacity=".2" d="M-19.4230769 37.7200577l52.7234054 25.3968254L48.9461538.77922078z" mask="url(#b)" style="mix-blend-mode:overlay"/>
    <path fill="#FFF" fill-opacity=".4" d="M118.092308 120V.77922078H49.7230769zM-19.4230769 37.4025974l52.8307692 25.4761905-52.8307692 57.9004331z" mask="url(#b)" style="mix-blend-mode:overlay"/>
    <path fill="#FFF" d="M49.9997086 14.025974c4.0990407 0 7.4219697 3.3521763 7.4219697 7.4872953 0 3.6086299-2.5306361 6.6209956-5.8992833 7.3295744l-.0004649 11.7962806c7.573917.8714935 13.7414901 6.4151051 15.6008471 13.7034213l9.9088255-.0004364c.7732391-3.3020922 3.7138326-5.7593876 7.2233507-5.7593876 4.0990407 0 7.4219697 3.3521763 7.4219697 7.4872953 0 4.1351191-3.322929 7.4872954-7.4219697 7.4872954-3.6442876 0-6.6751169-2.649645-7.3027517-6.1434459l-9.316543-.0007104c.0414541.506662.062593 1.0191356.062593 1.5365899 0 10.1787545-8.1795175 18.4302654-18.2694638 18.4302654-4.3831814 0-8.4058406-1.5571651-11.554045-4.1530392l-8.2114736 8.2835043c.9391189 1.2541558 1.4960547 2.8158267 1.4960547 4.5087218 0 4.135119-3.322929 7.4872953-7.4219697 7.4872953s-7.4219697-3.3521763-7.4219697-7.4872953 3.322929-7.4872953 7.4219697-7.4872953c1.3172986 0 2.5544425.346203 3.6269034.9533363l8.3207541-8.3924837c-2.8177341-3.2429526-4.5256878-7.4917686-4.5256878-12.1430096 0-9.8567905 7.670249-17.9063303 17.3179318-18.4056981l-.0002335-11.7012041c-3.3686472-.7085788-5.8992834-3.7209445-5.8992834-7.3295744 0-4.135119 3.322929-7.4872953 7.4219697-7.4872953z"/>
  </g>
</svg>
