<?xml version="1.0" encoding="UTF-8"?>
<svg width="524px" height="120px" viewBox="0 0 524 120" version="1.1" xmlns="http://www.w3.org/2000/svg" xmlns:xlink="http://www.w3.org/1999/xlink">
    <title>Logo / Dark txt</title>
    <defs>
        <path d="M54.623435,1.73047191 L97.123435,27.2934648 C99.5288408,28.7402736 101,31.3419242 101,34.1489213 L101,85.8510787 C101,88.6580758 99.5288408,91.2597264 97.123435,92.7065352 L54.623435,118.269528 C52.0862726,119.795586 48.9137274,119.795586 46.376565,118.269528 L3.87656503,92.7065352 C1.47115919,91.2597264 4.16148483e-12,88.6580758 4.15615576e-12,85.8510787 L4.12951041e-12,34.1489213 C4.13128677e-12,31.3419242 1.47115919,28.7402736 3.87656503,27.2934648 L46.376565,1.73047191 C48.9137274,0.204413928 52.0862726,0.204413928 54.623435,1.73047191 Z" id="path-1"></path>
    </defs>
    <g id="Logo-/-Dark-txt" stroke="none" stroke-width="1" fill="none" fill-rule="evenodd">
        <g id="Logo-/-White-txt">
            <path d="M144.410413,90.3184358 C144.705256,90.3184358 144.955872,90.219041 145.162262,90.0202514 C145.368652,89.8214618 145.471847,89.5800745 145.471847,89.2960894 L145.471847,31.7039106 C145.471847,31.4199255 145.368652,31.1785382 145.162262,30.9797486 C144.955872,30.780959 144.705256,30.6815642 144.410413,30.6815642 L134.061434,30.6815642 C133.766591,30.6815642 133.515975,30.780959 133.309585,30.9797486 C133.103195,31.1785382 133,31.4199255 133,31.7039106 L133,89.2960894 C133,89.5800745 133.103195,89.8214618 133.309585,90.0202514 C133.515975,90.219041 133.766591,90.3184358 134.061434,90.3184358 L144.410413,90.3184358 Z M168.41061,90.3184358 C168.705453,90.3184358 168.956069,90.219041 169.162459,90.0202514 C169.368849,89.8214618 169.472044,89.5800745 169.472044,89.2960894 L169.295139,53.3435754 C169.295139,53.1163873 169.354107,52.988594 169.472044,52.9601955 C169.589981,52.931797 169.707918,53.0027933 169.825855,53.1731844 L192.735135,89.6368715 C192.971009,90.0912477 193.383789,90.3184358 193.973474,90.3184358 L203.968642,90.3184358 C204.263485,90.3184358 204.514101,90.219041 204.720491,90.0202514 C204.926881,89.8214618 205.030076,89.5800745 205.030076,89.2960894 L205.030076,31.7039106 C205.030076,31.4199255 204.926881,31.1785382 204.720491,30.9797486 C204.514101,30.780959 204.263485,30.6815642 203.968642,30.6815642 L193.619663,30.6815642 C193.32482,30.6815642 193.074204,30.780959 192.867814,30.9797486 C192.661424,31.1785382 192.558229,31.4199255 192.558229,31.7039106 L192.646682,67.4860335 C192.646682,67.7132216 192.587713,67.8410149 192.469776,67.8694134 C192.351839,67.8978119 192.233902,67.8268156 192.115965,67.6564246 L169.295139,31.3631285 C169.059264,30.9087523 168.646485,30.6815642 168.056799,30.6815642 L158.061631,30.6815642 C157.766788,30.6815642 157.516172,30.780959 157.309782,30.9797486 C157.103392,31.1785382 157.000197,31.4199255 157.000197,31.7039106 L157.000197,89.2960894 C157.000197,89.5800745 157.103392,89.8214618 157.309782,90.0202514 C157.516172,90.219041 157.766788,90.3184358 158.061631,90.3184358 L168.41061,90.3184358 Z M241.341941,90.3184358 C241.636784,90.3184358 241.8874,90.219041 242.09379,90.0202514 C242.30018,89.8214618 242.403375,89.5800745 242.403375,89.2960894 L242.403375,41.5013966 C242.403375,41.2174115 242.550796,41.075419 242.845639,41.075419 L258.678693,41.075419 C258.973536,41.075419 259.224152,40.9760242 259.430542,40.7772346 C259.636932,40.5784451 259.740127,40.3370577 259.740127,40.0530726 L259.740127,31.7039106 C259.740127,31.4199255 259.636932,31.1785382 259.430542,30.9797486 C259.224152,30.780959 258.973536,30.6815642 258.678693,30.6815642 L214.098474,30.6815642 C213.803631,30.6815642 213.553015,30.780959 213.346625,30.9797486 C213.140235,31.1785382 213.03704,31.4199255 213.03704,31.7039106 L213.03704,40.0530726 C213.03704,40.3370577 213.140235,40.5784451 213.346625,40.7772346 C213.553015,40.9760242 213.803631,41.075419 214.098474,41.075419 L229.489264,41.075419 C229.784107,41.075419 229.931528,41.2174115 229.931528,41.5013966 L229.931528,89.2960894 C229.931528,89.5800745 230.034723,89.8214618 230.241113,90.0202514 C230.447503,90.219041 230.698119,90.3184358 230.992962,90.3184358 L241.341941,90.3184358 Z M309.762178,90.3184358 C310.057021,90.3184358 310.307637,90.219041 310.514027,90.0202514 C310.720417,89.8214618 310.823612,89.5800745 310.823612,89.2960894 L310.823612,81.0321229 C310.823612,80.7481378 310.720417,80.5067505 310.514027,80.3079609 C310.307637,80.1091713 310.057021,80.0097765 309.762178,80.0097765 L280.749655,80.0097765 C280.454812,80.0097765 280.307391,79.867784 280.307391,79.5837989 L280.307391,64.8362341 C280.307391,64.552249 280.454812,64.4102564 280.749655,64.4102564 L299.76701,64.4102564 C300.061853,64.4102564 300.312469,64.3108616 300.518859,64.1120721 C300.725249,63.9132825 300.828444,63.6718951 300.828444,63.38791 L300.828444,56.0698324 C300.828444,55.7858473 300.725249,55.54446 300.518859,55.3456704 C300.312469,55.1468808 300.061853,55.047486 299.76701,55.047486 L280.749655,55.047486 C280.454812,55.047486 280.307391,54.9054935 280.307391,54.6215084 L280.307391,41.4162011 C280.307391,41.132216 280.454812,40.9902235 280.749655,40.9902235 L309.762178,40.9902235 C310.057021,40.9902235 310.307637,40.8908287 310.514027,40.6920391 C310.720417,40.4932495 310.823612,40.2518622 310.823612,39.9678771 L310.823612,31.7039106 C310.823612,31.4199255 310.720417,31.1785382 310.514027,30.9797486 C310.307637,30.780959 310.057021,30.6815642 309.762178,30.6815642 L268.896978,30.6815642 C268.602135,30.6815642 268.351519,30.780959 268.145129,30.9797486 C267.938739,31.1785382 267.835544,31.4199255 267.835544,31.7039106 L267.835544,89.2960894 C267.835544,89.5800745 267.938739,89.8214618 268.145129,90.0202514 C268.351519,90.219041 268.602135,90.3184358 268.896978,90.3184358 L309.762178,90.3184358 Z M331.639508,90.3184358 C331.934351,90.3184358 332.184967,90.219041 332.391357,90.0202514 C332.597747,89.8214618 332.700942,89.5800745 332.700942,89.2960894 L332.700942,64.8449721 C332.700942,64.560987 332.848363,64.4189944 333.143206,64.4189944 L341.369318,64.4189944 C341.605192,64.4189944 341.782097,64.5325885 341.900035,64.7597765 L352.956636,89.551676 C353.192511,90.0628492 353.60529,90.3184358 354.194976,90.3184358 L365.074672,90.3184358 C365.723326,90.3184358 366.047653,90.0912477 366.047653,89.6368715 C366.047653,89.5232775 365.988685,89.3528864 365.870747,89.1256983 L353.841165,65.0153631 C353.723227,64.731378 353.81168,64.5325885 354.106523,64.4189944 C357.703604,63.283054 360.50461,61.3377561 362.50954,58.5831006 C364.514471,55.8284451 365.516936,52.5200186 365.516936,48.6578212 C365.516936,45.0796089 364.735603,41.9273743 363.172937,39.2011173 C361.61027,36.4748603 359.39895,34.3733706 356.538975,32.896648 C353.679001,31.4199255 350.362021,30.6815642 346.588034,30.6815642 L321.290529,30.6815642 C320.995686,30.6815642 320.74507,30.780959 320.53868,30.9797486 C320.33229,31.1785382 320.229095,31.4199255 320.229095,31.7039106 L320.229095,89.2960894 C320.229095,89.5800745 320.33229,89.8214618 320.53868,90.0202514 C320.74507,90.219041 320.995686,90.3184358 321.290529,90.3184358 L331.639508,90.3184358 Z M398.033521,30.7820513 C402.396699,30.7820513 406.221385,31.6500303 409.507576,33.3859884 C412.793768,35.1219464 415.34816,37.5605542 417.170754,40.7018116 C418.993348,43.8430691 419.904645,47.4527596 419.904645,51.5308833 L419.904645,51.5308833 L419.904645,69.2211226 L419.899476,69.7575835 C419.823679,73.6721489 418.914104,77.158129 417.170754,80.2155237 C415.34816,83.4118909 412.793768,85.8780536 409.507576,87.6140116 C406.221385,89.3499697 402.396699,90.2179487 398.033521,90.2179487 C393.725572,90.2179487 389.928502,89.3361922 386.64231,87.5726793 C383.356119,85.8091663 380.801726,83.3430037 378.979133,80.1741914 C377.156539,77.005379 376.245242,73.3543561 376.245242,69.2211226 L376.245242,69.2211226 L376.245242,51.5308833 L376.25041,51.0016107 C376.326208,47.139759 377.235782,43.7064927 378.979133,40.7018116 C380.801726,37.5605542 383.356119,35.1219464 386.64231,33.3859884 C389.928502,31.6500303 393.725572,30.7820513 398.033521,30.7820513 Z M398.033575,40.9487179 C394.999904,40.9487179 392.559178,41.9187676 390.711397,43.8588668 C388.863616,45.7989661 387.939725,48.3538856 387.939725,51.5236252 L387.939725,51.5236252 L387.939725,69.5583508 L387.944537,69.9512949 C388.01832,72.9387707 388.940606,75.3490462 390.711397,77.1821212 C392.559178,79.0948951 394.999904,80.0512821 398.033575,80.0512821 C401.067246,80.0512821 403.521761,79.0948951 405.397122,77.1821212 C407.272482,75.2693472 408.210162,72.7280905 408.210162,69.5583508 L408.210162,69.5583508 L408.210162,51.5236252 L408.20535,51.13061 C408.131567,48.142043 407.20928,45.7181286 405.43849,43.8588668 C403.590708,41.9187676 401.122404,40.9487179 398.033575,40.9487179 Z M344.730525,40.9902235 C347.207203,40.9902235 349.226876,41.6512944 350.789542,42.9734364 C352.352209,44.2955783 353.133542,45.9936234 353.133542,48.0675715 C353.133542,50.1415197 352.352209,51.8266026 350.789542,53.1228201 C349.226876,54.4190377 347.207203,55.0671465 344.730525,55.0671465 L333.143206,55.0671465 C332.848363,55.0671465 332.700942,54.9375248 332.700942,54.6782813 L332.700942,41.3790887 C332.700942,41.1198452 332.848363,40.9902235 333.143206,40.9902235 L344.730525,40.9902235 Z M441.450276,90.3184259 C441.745119,90.3184259 441.995735,90.2260152 442.202125,90.0411937 C442.408515,89.8563723 442.51171,89.6319463 442.51171,89.3679156 L442.51171,64.9731565 C442.51171,64.7091258 442.659131,64.5771105 442.953974,64.5771105 L453.175377,64.5771105 C457.12627,64.5771105 460.620156,63.8774293 463.657036,62.478067 C466.693916,61.0787047 469.052658,59.1116765 470.733261,56.5769825 C472.413865,54.0422885 473.254166,51.1115485 473.254166,47.7847626 C473.254166,44.4051705 472.443349,41.4084229 470.821714,38.7945197 C469.200079,36.1806165 466.915048,34.1607822 463.966621,32.7350168 C461.018193,31.3092514 457.598018,30.5963687 453.706094,30.5963687 L431.101297,30.5963687 C430.806454,30.5963687 430.555838,30.6887794 430.349448,30.8736009 C430.143058,31.0584223 430.039863,31.2828483 430.039863,31.546879 L430.039863,89.3679156 C430.039863,89.6319463 430.143058,89.8563723 430.349448,90.0411937 C430.555838,90.2260152 430.806454,90.3184259 431.101297,90.3184259 L441.450276,90.3184259 Z M442.978156,55.0671465 C442.667192,55.0671465 442.51171,54.9462108 442.51171,54.7043392 L442.51171,41.3530308 C442.51171,41.1111592 442.667192,40.9902235 442.978156,40.9902235 L452.487004,40.9902235 C455.347876,40.9902235 457.649013,41.6432766 459.390414,42.9493829 C461.131814,44.2554891 462.002515,45.972777 462.002515,48.1012465 C462.002515,50.1813416 461.131814,51.8623488 459.390414,53.1442679 C457.649013,54.426187 455.347876,55.0671465 452.487004,55.0671465 L442.978156,55.0671465 Z M501.356079,91 C508.314367,91 513.827926,89.4522812 517.896756,86.3568436 C521.965585,83.261406 524,79.0442272 524,73.7053073 C524,70.127095 523.041761,67.2162477 521.125284,64.9727654 C519.208806,62.7292831 517.056454,61.0395717 514.668228,59.9036313 C512.280002,58.7676909 508.992506,57.4613594 504.805739,55.9846369 C501.031752,54.6783054 498.245489,53.6417598 496.446948,52.875 C494.648407,52.1082402 493.292131,51.2420857 492.378119,50.2765363 C491.464106,49.310987 491.0071,48.1182495 491.0071,46.698324 C491.0071,44.7104283 491.788433,43.1485102 493.351099,42.0125698 C494.913766,40.8766294 497.08086,40.3086592 499.852381,40.3086592 C503.390494,40.3086592 506.176758,41.1464153 508.211172,42.8219274 C510.245587,44.4974395 511.262795,46.527933 511.262795,48.9134078 L511.262795,49.5949721 C511.262795,49.8789572 511.36599,50.1203445 511.572379,50.3191341 C511.778769,50.5179236 512.029386,50.6173184 512.324228,50.6173184 L522.496302,50.6173184 C522.791145,50.6173184 523.041761,50.5179236 523.248151,50.3191341 C523.454541,50.1203445 523.557736,49.8789572 523.557736,49.5949721 L523.557736,48.3170391 C523.557736,44.6820298 522.570013,41.4871974 520.594567,38.7325419 C518.61912,35.9778864 515.877083,33.8337989 512.368455,32.3002793 C508.859826,30.7667598 504.864708,30 500.383098,30 C496.137363,30 492.392861,30.6815642 489.149591,32.0446927 C485.906321,33.4078212 483.370674,35.3673184 481.542649,37.9231844 C479.714624,40.4790503 478.800611,43.4608939 478.800611,46.8687151 C478.800611,50.3333333 479.729366,53.2441806 481.586875,55.601257 C483.444384,57.9583333 485.744157,59.8184358 488.486195,61.1815642 C491.228232,62.5446927 494.574697,63.8794227 498.525589,65.1857542 C502.063702,66.4352886 504.643576,67.4150372 506.265211,68.125 C507.886845,68.8349628 509.169411,69.6585196 510.112908,70.5956704 C511.056405,71.5328212 511.528153,72.6829609 511.528153,74.0460894 C511.528153,75.9203911 510.761562,77.4965084 509.22838,78.7744413 C507.695198,80.0523743 505.36594,80.6913408 502.240607,80.6913408 C498.525589,80.6913408 495.577162,79.9103818 493.395326,78.3484637 C491.21349,76.7865456 490.122572,74.8696462 490.122572,72.5977654 L490.122572,71.3198324 C490.122572,71.0358473 490.019377,70.79446 489.812987,70.5956704 C489.606597,70.3968808 489.355981,70.297486 489.061138,70.297486 L478.977517,70.297486 C478.682674,70.297486 478.432058,70.3968808 478.225668,70.5956704 C478.019278,70.79446 477.916083,71.0358473 477.916083,71.3198324 L477.916083,73.1941341 C477.916083,76.7723464 478.874322,79.9103818 480.7908,82.6082402 C482.707277,85.3060987 485.434573,87.3791899 488.972685,88.827514 C492.510798,90.275838 496.638596,91 501.356079,91 Z" id="Interops" fill="#0A021F" fill-rule="nonzero"></path>
            <g id="Emblem">
                <g>
                    <mask id="mask-2" fill="white">
                        <use xlink:href="#path-1"></use>
                    </mask>
                    <use id="Combined-Shape" fill="#4100E1" xlink:href="#path-1"></use>
                    <polygon id="Rectangle" fill-opacity="0.2" fill="#000000" style="mix-blend-mode: overlay;" mask="url(#mask-2)" points="117.315385 120.11932 33.3003285 63.1168831 -19.4230769 120.779221"></polygon>
                    <polygon id="Rectangle" fill-opacity="0.8" fill="#FFFFFF" style="mix-blend-mode: overlay;" mask="url(#mask-2)" points="117.315385 120 33.4076923 63.0247948 49.0335237 0.779220779"></polygon>
                    <polygon id="Rectangle" fill-opacity="0.2" fill="#FFFFFF" style="mix-blend-mode: overlay;" mask="url(#mask-2)" points="-19.4230769 37.7200577 33.3003285 63.1168831 48.9461538 0.779220779"></polygon>
                    <polygon id="Rectangle" fill-opacity="0.4" fill="#FFFFFF" style="mix-blend-mode: overlay;" mask="url(#mask-2)" points="118.092308 120 118.092308 0.779220779 49.7230769 0.779220779"></polygon>
                    <polygon id="Rectangle" fill-opacity="0.4" fill="#FFFFFF" style="mix-blend-mode: overlay;" mask="url(#mask-2)" points="-19.4230769 37.4025974 33.4076923 62.8787879 -19.4230769 120.779221"></polygon>
                    <path d="M49.9997086,14.025974 C54.0987493,14.025974 57.4216783,17.3781503 57.4216783,21.5132693 C57.4216783,25.1218992 54.8910422,28.1342649 51.522395,28.8428437 L51.5219301,40.6391243 C59.0958471,41.5106178 65.2634202,47.0542294 67.1227772,54.3425456 L77.0316027,54.3421092 C77.8048418,51.040017 80.7454353,48.5827216 84.2549534,48.5827216 C88.3539941,48.5827216 91.6769231,51.9348979 91.6769231,56.0700169 C91.6769231,60.205136 88.3539941,63.5573123 84.2549534,63.5573123 C80.6106658,63.5573123 77.5798365,60.9076673 76.9522017,57.4138664 L67.6356587,57.413156 C67.6771128,57.919818 67.6982517,58.4322916 67.6982517,58.9497459 C67.6982517,69.1285004 59.5187342,77.3800113 49.4287879,77.3800113 C45.0456065,77.3800113 41.0229473,75.8228462 37.8747429,73.2269721 L29.6632693,81.5104764 C30.6023882,82.7646322 31.159324,84.3263031 31.159324,86.0191982 C31.159324,90.1543172 27.836395,93.5064935 23.7373543,93.5064935 C19.6383136,93.5064935 16.3153846,90.1543172 16.3153846,86.0191982 C16.3153846,81.8840792 19.6383136,78.5319029 23.7373543,78.5319029 C25.0546529,78.5319029 26.2917968,78.8781059 27.3642577,79.4852392 L35.6850118,71.0927555 C32.8672777,67.8498029 31.159324,63.6009869 31.159324,58.9497459 C31.159324,49.0929554 38.829573,41.0434156 48.4772558,40.5440478 L48.4770223,28.8428437 C45.1083751,28.1342649 42.5777389,25.1218992 42.5777389,21.5132693 C42.5777389,17.3781503 45.9006679,14.025974 49.9997086,14.025974 Z" id="Combined-Shape" fill="#FFFFFF" mask="url(#mask-2)"></path>
                </g>
            </g>
        </g>
    </g>
</svg>