<?xml version="1.0" encoding="UTF-8" standalone="no"?>
<svg
   xmlns:dc="http://purl.org/dc/elements/1.1/"
   xmlns:cc="http://creativecommons.org/ns#"
   xmlns:rdf="http://www.w3.org/1999/02/22-rdf-syntax-ns#"
   xmlns:svg="http://www.w3.org/2000/svg"
   xmlns="http://www.w3.org/2000/svg"
   xmlns:sodipodi="http://sodipodi.sourceforge.net/DTD/sodipodi-0.dtd"
   xmlns:inkscape="http://www.inkscape.org/namespaces/inkscape"
   id="Laag_1"
   data-name="Laag 1"
   viewBox="0 0 666.23076 183.99999"
   version="1.1"
   sodipodi:docname="interops-logo-medium.svg"
   width="666.23077"
   height="184"
   inkscape:version="0.92.2 5c3e80d, 2017-08-06">
  <metadata
     id="metadata41">
    <rdf:RDF>
      <cc:Work
         rdf:about="">
        <dc:format>image/svg+xml</dc:format>
        <dc:type
           rdf:resource="http://purl.org/dc/dcmitype/StillImage" />
      </cc:Work>
    </rdf:RDF>
  </metadata>
  <sodipodi:namedview
     pagecolor="#ffffff"
     bordercolor="#666666"
     borderopacity="1"
     objecttolerance="10"
     gridtolerance="10"
     guidetolerance="10"
     inkscape:pageopacity="0"
     inkscape:pageshadow="2"
     inkscape:window-width="640"
     inkscape:window-height="480"
     id="namedview39"
     showgrid="false"
     inkscape:zoom="0.37890935"
     inkscape:cx="-34.901573"
     inkscape:cy="-4.8761741"
     inkscape:window-x="0"
     inkscape:window-y="0"
     inkscape:window-maximized="0"
     inkscape:current-layer="Laag_1" />
  <defs
     id="defs4">
    <style
       id="style2">.cls-1{fill:#2e96d3;}.cls-2,.cls-3{fill:#dbbe23;}.cls-2{stroke:#dbbe23;stroke-miterlimit:10;stroke-width:2px;}</style>
  </defs>
  <circle
     class="cls-1"
     cx="92"
     cy="92"
     r="92"
     id="circle6"
     style="fill:#2e96d3" />
  <line
     class="cls-2"
     x1="44.179993"
     y1="142.56003"
     x2="105.88"
     y2="80.870026"
     id="line8"
     style="fill:#dbbe23;stroke:#dbbe23;stroke-width:2px;stroke-miterlimit:10" />
  <line
     class="cls-2"
     x1="86.529999"
     y1="100.21002"
     x2="86.529999"
     y2="34.500015"
     id="line10"
     style="fill:#dbbe23;stroke:#dbbe23;stroke-width:2px;stroke-miterlimit:10" />
  <line
     class="cls-2"
     x1="105.52"
     y1="80.5"
     x2="152.98001"
     y2="80.5"
     id="line12"
     style="fill:#dbbe23;stroke:#dbbe23;stroke-width:2px;stroke-miterlimit:10" />
  <circle
     class="cls-3"
     cx="86.529999"
     cy="34.500015"
     r="5.1100001"
     id="circle14"
     style="fill:#dbbe23" />
  <circle
     class="cls-3"
     cx="106.25"
     cy="81.960022"
     r="5.1100001"
     id="circle16"
     style="fill:#dbbe23" />
  <circle
     class="cls-3"
     cx="152.25"
     cy="80.870026"
     r="5.1100001"
     id="circle18"
     style="fill:#dbbe23" />
  <circle
     class="cls-3"
     cx="44.179993"
     cy="141.47"
     r="5.1100001"
     id="circle20"
     style="fill:#dbbe23" />
  <path
     class="cls-1"
     d="m 237.85,65.330013 v 49.259997 h -6.91 V 65.330013 Z"
     id="path22"
     inkscape:connector-curvature="0"
     style="fill:#2e96d3" />
  <path
     class="cls-1"
     d="m 308.44,65.330013 v 50.899997 h -0.21 l -37.83,-36.729997 0.15,35.089997 h -7 V 63.830013 h 0.35 l 37.75,37.129997 -0.14,-35.629997 z"
     id="path24"
     inkscape:connector-curvature="0"
     style="fill:#2e96d3" />
  <path
     class="cls-1"
     d="m 364.57,65.330013 v 6.34 h -13.79 v 42.919997 h -6.91 V 71.670013 h -13.49 v -6.34 z"
     id="path26"
     inkscape:connector-curvature="0"
     style="fill:#2e96d3" />
  <path
     class="cls-1"
     d="m 419.99,65.330013 v 6.34 h -26.57 v 15 h 23.72 v 6.33 h -23.72 v 15.199997 h 27.56 v 6.4 H 386.51 V 65.330013 Z"
     id="path28"
     inkscape:connector-curvature="0"
     style="fill:#2e96d3" />
  <path
     class="cls-1"
     d="M 472.27,114.59001 460.16,96.400013 c -0.38,0 -1,0.07 -1.71,0.07 h -7.62 v 18.119997 h -6.91 V 65.330013 h 13.75 a 23.69,23.69 0 0 1 9.4,1.77 14.66,14.66 0 0 1 6.48,5.21 14.33,14.33 0 0 1 2.35,8.28 17.06,17.06 0 0 1 -2.1,8.38 13.36,13.36 0 0 1 -6.45,5.79 l 13,19.829997 z m -6,-27.319997 a 9.42,9.42 0 0 0 2.46,-6.41 9.68,9.68 0 0 0 -1,-4.29 8.5,8.5 0 0 0 -3.27,-3.51 10.58,10.58 0 0 0 -5.68,-1.39 h -8 v 18.39 h 7.48 q 5.6,0 8.06,-2.79 z"
     id="path30"
     inkscape:connector-curvature="0"
     style="fill:#2e96d3" />
  <path
     class="cls-1"
     d="m 501.04,77.460013 a 26.51,26.51 0 0 1 9.58,-9.23 26.76,26.76 0 0 1 26.25,0 26.55,26.55 0 0 1 9.65,9.23 23.3,23.3 0 0 1 3.6,12.53 23.65,23.65 0 0 1 -3.56,12.609997 25.82,25.82 0 0 1 -9.65,9.16 27.45,27.45 0 0 1 -26.32,0 25.4,25.4 0 0 1 -9.58,-9.1 23.87,23.87 0 0 1 -3.53,-12.709997 23.53,23.53 0 0 1 3.56,-12.49 z m 6.13,21.94 a 18.81,18.81 0 0 0 7,6.809997 20,20 0 0 0 19.37,0 18.71,18.71 0 0 0 6.87,-25.719997 18.73,18.73 0 0 0 -7,-6.88 19.18,19.18 0 0 0 -9.68,-2.52 18.92,18.92 0 0 0 -9.65,2.58 18.77,18.77 0 0 0 -9.47,16.38 17.88,17.88 0 0 0 2.56,9.35 z"
     id="path32"
     inkscape:connector-curvature="0"
     style="fill:#2e96d3" />
  <path
     class="cls-1"
     d="m 604.78,69.350013 q 4.74,4 4.74,11.24 a 17.69,17.69 0 0 1 -1.75,7.77 13.55,13.55 0 0 1 -5.63,5.86 19.27,19.27 0 0 1 -9.79,2.25 h -7.57 v 18.119997 h -6.91 V 65.330013 h 13.82 q 8.36,0 13.09,4.02 z m -6.41,19.21 a 8.74,8.74 0 0 0 3.31,-3.64 9.84,9.84 0 0 0 1,-4.19 9.3,9.3 0 0 0 -2.42,-6.3 c -1.62,-1.84 -4.13,-2.76 -7.55,-2.76 h -8 v 18.39 h 7.62 a 10.89,10.89 0 0 0 6.05,-1.5 z"
     id="path34"
     inkscape:connector-curvature="0"
     style="fill:#2e96d3" />
  <path
     class="cls-1"
     d="m 657.04,71.800013 a 21.79,21.79 0 0 0 -5.92,-0.88 11.05,11.05 0 0 0 -6.66,1.8 6,6 0 0 0 0.43,9.95 38.39,38.39 0 0 0 8.23,3.85 38.11,38.11 0 0 1 6.73,3 13.49,13.49 0 0 1 4.56,4.43 13.09,13.09 0 0 1 1.81,7.189997 12.85,12.85 0 0 1 -2.06,7.15 14.11,14.11 0 0 1 -5.88,5.05 20.44,20.44 0 0 1 -8.94,1.84 28.94,28.94 0 0 1 -9.19,-1.47 31.91,31.91 0 0 1 -7.76,-3.71 l 3.06,-5.25 a 25.61,25.61 0 0 0 6.34,3.24 20.73,20.73 0 0 0 6.91,1.33 12.75,12.75 0 0 0 7.23,-2.05 6.77,6.77 0 0 0 3.1,-6.06 6.51,6.51 0 0 0 -2.6,-5.419997 28.49,28.49 0 0 0 -7.3,-3.78 59,59 0 0 1 -7.23,-3.07 15,15 0 0 1 -5,-4.12 10.28,10.28 0 0 1 -2.07,-6.57 11.68,11.68 0 0 1 4.24,-9.37 17.29,17.29 0 0 1 11,-3.78 31.38,31.38 0 0 1 15.45,3.95 l -2.63,5.11 a 31.86,31.86 0 0 0 -5.85,-2.36 z"
     id="path36"
     inkscape:connector-curvature="0"
     style="fill:#2e96d3" />
</svg>
