
<svg xmlns="http://www.w3.org/2000/svg" viewBox="0 0 666.23 184">
  <defs/>
  <circle cx="92" cy="92" r="92" fill="#3c4989"/>
  <path fill="#dcbe21" stroke="#dcbe21" stroke-miterlimit="10" stroke-width="5" d="M44.18 142.56l61.7-61.69M80 107V34.5M105.52 80.5h47.46"/>
  <circle cx="80" cy="34.5" r="8" fill="#dcbe21"/>
  <circle cx="106.25" cy="80.87" r="8" fill="#dcbe21"/>
  <circle cx="152.25" cy="80.87" r="8" fill="#dcbe21"/>
  <circle cx="44.18" cy="141.47" r="8" fill="#dcbe21"/>
  <path fill="#3c4989" d="M237.85 65.33v49.26h-6.91V65.33zM308.44 65.33v50.9h-.21L270.4 79.5l.15 35.09h-7V63.83h.35l37.75 37.13-.14-35.63zM364.57 65.33v6.34h-13.79v42.92h-6.91V71.67h-13.49v-6.34zM419.99 65.33v6.34h-26.57v15h23.72V93h-23.72v15.2h27.56v6.4h-34.47V65.33zM472.27 114.59L460.16 96.4c-.38 0-1 .07-1.71.07h-7.62v18.12h-6.91V65.33h13.75a23.69 23.69 0 019.4 1.77 14.66 14.66 0 016.48 5.21 14.33 14.33 0 012.35 8.28 17.06 17.06 0 01-2.1 8.38 13.36 13.36 0 01-6.45 5.79l13 19.83zm-6-27.32a9.42 9.42 0 002.46-6.41 9.68 9.68 0 00-1-4.29 8.5 8.5 0 00-3.27-3.51 10.58 10.58 0 00-5.68-1.39h-8v18.39h7.48q5.6 0 8.06-2.79zM501.04 77.46a26.51 26.51 0 019.58-9.23 26.76 26.76 0 0126.25 0 26.55 26.55 0 019.65 9.23 23.3 23.3 0 013.6 12.53 23.65 23.65 0 01-3.56 12.61 25.82 25.82 0 01-9.65 9.16 27.45 27.45 0 01-26.32 0 25.4 25.4 0 01-9.58-9.1 23.87 23.87 0 01-3.53-12.71 23.53 23.53 0 013.56-12.49zm6.13 21.94a18.81 18.81 0 007 6.81 20 20 0 0019.37 0 18.71 18.71 0 006.87-25.72 18.73 18.73 0 00-7-6.88 19.18 19.18 0 00-9.68-2.52 18.92 18.92 0 00-9.65 2.58 18.77 18.77 0 00-9.47 16.38 17.88 17.88 0 002.56 9.35zM604.78 69.35q4.74 4 4.74 11.24a17.69 17.69 0 01-1.75 7.77 13.55 13.55 0 01-5.63 5.86 19.27 19.27 0 01-9.79 2.25h-7.57v18.12h-6.91V65.33h13.82q8.36 0 13.09 4.02zm-6.41 19.21a8.74 8.74 0 003.31-3.64 9.84 9.84 0 001-4.19 9.3 9.3 0 00-2.42-6.3c-1.62-1.84-4.13-2.76-7.55-2.76h-8v18.39h7.62a10.89 10.89 0 006.05-1.5zM657.04 71.8a21.79 21.79 0 00-5.92-.88 11.05 11.05 0 00-6.66 1.8 6 6 0 00.43 9.95 38.39 38.39 0 008.23 3.85 38.11 38.11 0 016.73 3 13.49 13.49 0 014.56 4.43 13.09 13.09 0 011.81 7.19 12.85 12.85 0 01-2.06 7.15 14.11 14.11 0 01-5.88 5.05 20.44 20.44 0 01-8.94 1.84 28.94 28.94 0 01-9.19-1.47 31.91 31.91 0 01-7.76-3.71l3.06-5.25a25.61 25.61 0 006.34 3.24 20.73 20.73 0 006.91 1.33 12.75 12.75 0 007.23-2.05 6.77 6.77 0 003.1-6.06 6.51 6.51 0 00-2.6-5.42 28.49 28.49 0 00-7.3-3.78 59 59 0 01-7.23-3.07 15 15 0 01-5-4.12 10.28 10.28 0 01-2.07-6.57 11.68 11.68 0 014.24-9.37 17.29 17.29 0 0111-3.78 31.38 31.38 0 0115.45 3.95l-2.63 5.11a31.86 31.86 0 00-5.85-2.36z"/>
</svg>
