<svg xmlns="http://www.w3.org/2000/svg" xmlns:xlink="http://www.w3.org/1999/xlink" viewBox="0 0 1221.363 159.48">
  <defs/>
  <path fill="#3c4989" d="M19.35 4.55V154H0V4.55zM216.86 4.55V159h-.59L110.43 47.54l.4 106.45H91.3V0h1l105.63 112.65-.4-108.1zM373.92 4.55v19.22h-38.66V154h-19.34V23.77h-37.67V4.55zM529 4.55v19.22h-74.36v45.48H521v19.22h-66.36v46.09h77.14V154h-96.47V4.55zM675.28 154L641.4 98.8a40.05 40.05 0 01-4.79.21h-21.32v55H596V4.55h38.47a61.78 61.78 0 0126.31 5.37 41.78 41.78 0 0118.14 15.82q6.57 10.42 6.58 25.11a55.42 55.42 0 01-5.88 25.42 38.91 38.91 0 01-18 17.57L697.8 154zm-16.64-82.88a30 30 0 006.87-19.43 31.4 31.4 0 00-2.89-13A25.2 25.2 0 00653.46 28q-6.29-4.23-15.85-4.24h-22.32v55.81h20.93q15.54.01 22.42-8.46zM1049.48 16.74q13.26 12.21 13.26 34.11a57.26 57.26 0 01-4.88 23.56 40 40 0 01-15.75 17.78Q1031.25 99 1014.7 99h-21.32v55H974V4.55h38.67q23.56 0 36.81 12.19zM1031.55 75a25.93 25.93 0 009.26-11.06 32.12 32.12 0 002.79-12.71 29.59 29.59 0 00-6.77-19.12q-6.78-8.37-21.13-8.37h-22.32v55.81h21.32q10.36.03 16.85-4.55zM1195.68 24.18a56.59 56.59 0 00-16.54-2.68q-11.78 0-18.64 5.48-6.86 5.48-6.88 15 0 9.3 8.07 15.19 8.07 5.89 23 11.68a101.74 101.74 0 0118.83 9 39.27 39.27 0 0112.76 13.44q5.07 8.58 5.08 21.81a41.65 41.65 0 01-5.78 21.7 40.55 40.55 0 01-16.44 15.3q-10.67 5.58-25 5.58a75.24 75.24 0 01-25.71-4.45 85.9 85.9 0 01-21.72-11.26l8.57-15.92a69 69 0 0017.74 9.82 53.44 53.44 0 0019.33 4 33.91 33.91 0 0020.23-6.2q8.67-6.19 8.67-18.4 0-10.33-7.28-16.43t-20.43-11.47a163.47 163.47 0 01-20.23-9.3 43.22 43.22 0 01-13.85-12.51q-5.78-7.95-5.78-19.95 0-17.56 11.86-28.42 11.86-10.86 30.8-11.47a82.45 82.45 0 0143.25 12l-7.38 15.5a85.59 85.59 0 00-16.53-7.04z"/>
  <g transform="matrix(.85109 0 0 .85109 756.56 2.88)">
    <g id="a">
      <circle cx="92" cy="92" r="92" fill="#3c4989"/>
      <path fill="#dcbe21" stroke="#dcbe21" stroke-miterlimit="10" stroke-width="5" d="M44.18 142.56l61.7-61.69M80 107V34.5M105.52 80.5h47.46"/>
      <circle cx="80" cy="34.5" r="8" fill="#dcbe21"/>
      <circle cx="106.25" cy="80.87" r="8" fill="#dcbe21"/>
      <circle cx="152.25" cy="80.87" r="8" fill="#dcbe21"/>
      <circle cx="44.18" cy="141.47" r="8" fill="#dcbe21"/>
    </g>
  </g>
  <use width="100%" height="100%" transform="matrix(.85109 0 0 .85109 756.56 2.88)" xlink:href="#a"/>
</svg>
