<svg xmlns="http://www.w3.org/2000/svg" xmlns:xlink="http://www.w3.org/1999/xlink" viewBox="0 0 524 120">
  <defs/>
  <g fill="none" fill-rule="evenodd">
    <path fill="#FFF" fill-rule="nonzero" d="M144.410413 90.3184358c.294843 0 .545459-.0993948.751849-.2981844.20639-.1987896.309585-.4401769.309585-.724162V31.7039106c0-.2839851-.103195-.5253724-.309585-.724162-.20639-.1987896-.457006-.2981844-.751849-.2981844h-10.348979c-.294843 0-.545459.0993948-.751849.2981844-.20639.1987896-.309585.4401769-.309585.724162v57.5921788c0 .2839851.103195.5253724.309585.724162.20639.1987896.457006.2981844.751849.2981844h10.348979zm24.000197 0c.294843 0 .545459-.0993948.751849-.2981844.20639-.1987896.309585-.4401769.309585-.724162l-.176905-35.952514c0-.2271881.058968-.3549814.176905-.3833799.117937-.0283985.235874.0425978.353811.2129889l22.90928 36.4636871c.235874.4543762.648654.6815643 1.238339.6815643h9.995168c.294843 0 .545459-.0993948.751849-.2981844.20639-.1987896.309585-.4401769.309585-.724162V31.7039106c0-.2839851-.103195-.5253724-.309585-.724162-.20639-.1987896-.457006-.2981844-.751849-.2981844h-10.348979c-.294843 0-.545459.0993948-.751849.2981844-.20639.1987896-.309585.4401769-.309585.724162l.088453 35.7821229c0 .2271881-.058969.3549814-.176906.3833799-.117937.0283985-.235874-.0425978-.353811-.2129888l-22.820826-36.2932961c-.235875-.4543762-.648654-.6815643-1.23834-.6815643h-9.995168c-.294843 0-.545459.0993948-.751849.2981844-.20639.1987896-.309585.4401769-.309585.724162v57.5921788c0 .2839851.103195.5253724.309585.724162.20639.1987896.457006.2981844.751849.2981844h10.348979zm72.931331 0c.294843 0 .545459-.0993948.751849-.2981844.20639-.1987896.309585-.4401769.309585-.724162V41.5013966c0-.2839851.147421-.4259776.442264-.4259776h15.833054c.294843 0 .545459-.0993948.751849-.2981844.20639-.1987895.309585-.4401769.309585-.724162v-8.349162c0-.2839851-.103195-.5253724-.309585-.724162-.20639-.1987896-.457006-.2981844-.751849-.2981844h-44.580219c-.294843 0-.545459.0993948-.751849.2981844-.20639.1987896-.309585.4401769-.309585.724162v8.349162c0 .2839851.103195.5253725.309585.724162.20639.1987896.457006.2981844.751849.2981844h15.39079c.294843 0 .442264.1419925.442264.4259776v47.7946928c0 .2839851.103195.5253724.309585.724162.20639.1987896.457006.2981844.751849.2981844h10.348979zm68.420237 0c.294843 0 .545459-.0993948.751849-.2981844.20639-.1987896.309585-.4401769.309585-.724162v-8.2639665c0-.2839851-.103195-.5253724-.309585-.724162-.20639-.1987896-.457006-.2981844-.751849-.2981844h-29.012523c-.294843 0-.442264-.1419925-.442264-.4259776V64.8362341c0-.2839851.147421-.4259777.442264-.4259777h19.017355c.294843 0 .545459-.0993948.751849-.2981843.20639-.1987896.309585-.440177.309585-.7241621v-7.3180776c0-.2839851-.103195-.5253724-.309585-.724162-.20639-.1987896-.457006-.2981844-.751849-.2981844h-19.017355c-.294843 0-.442264-.1419925-.442264-.4259776V41.4162011c0-.2839851.147421-.4259776.442264-.4259776h29.012523c.294843 0 .545459-.0993948.751849-.2981844.20639-.1987896.309585-.4401769.309585-.724162v-8.2639665c0-.2839851-.103195-.5253724-.309585-.724162-.20639-.1987896-.457006-.2981844-.751849-.2981844h-40.8652c-.294843 0-.545459.0993948-.751849.2981844-.20639.1987896-.309585.4401769-.309585.724162v57.5921788c0 .2839851.103195.5253724.309585.724162.20639.1987896.457006.2981844.751849.2981844h40.8652zm21.87733 0c.294843 0 .545459-.0993948.751849-.2981844.20639-.1987896.309585-.4401769.309585-.724162V64.8449721c0-.2839851.147421-.4259777.442264-.4259777h8.226112c.235874 0 .412779.1135941.530717.3407821l11.056601 24.7918995c.235875.5111732.648654.7667598 1.23834.7667598h10.879696c.648654 0 .972981-.2271881.972981-.6815643 0-.113594-.058968-.2839851-.176906-.5111732l-12.029582-24.1103352c-.117938-.2839851-.029485-.4827746.265358-.5963687 3.597081-1.1359404 6.398087-3.0812383 8.403017-5.8358938 2.004931-2.7546555 3.007396-6.063082 3.007396-9.9252794 0-3.5782123-.781333-6.7304469-2.343999-9.4567039-1.562667-2.726257-3.773987-4.8277467-6.633962-6.3044693-2.859974-1.4767225-6.176954-2.2150838-9.950941-2.2150838h-25.297505c-.294843 0-.545459.0993948-.751849.2981844-.20639.1987896-.309585.4401769-.309585.724162v57.5921788c0 .2839851.103195.5253724.309585.724162.20639.1987896.457006.2981844.751849.2981844h10.348979zm66.394013-59.5363845c4.363178 0 8.187864.867979 11.474055 2.6039371 3.286192 1.735958 5.840584 4.1745658 7.663178 7.3158232 1.822594 3.1412575 2.733891 6.750948 2.733891 10.8290717v17.6902393l-.005169.5364609c-.075797 3.9145654-.985372 7.4005455-2.728722 10.4579402-1.822594 3.1963672-4.376986 5.6625299-7.663178 7.3984879-3.286191 1.7359581-7.110877 2.6039371-11.474055 2.6039371-4.307949 0-8.105019-.8817565-11.391211-2.6452694-3.286191-1.763513-5.840584-4.2296756-7.663177-7.3984879-1.822594-3.1688124-2.733891-6.8198353-2.733891-10.9530688V51.5308833l.005168-.5292726c.075798-3.8618517.985372-7.295118 2.728723-10.2997991 1.822593-3.1412574 4.376986-5.5798652 7.663177-7.3158232 3.286192-1.7359581 7.083262-2.6039371 11.391211-2.6039371zm.000054 10.1666666c-3.033671 0-5.474397.9700497-7.322178 2.9101489-1.847781 1.9400993-2.771672 4.4950188-2.771672 7.6647584v18.0347256l.004812.3929441c.073783 2.9874758.996069 5.3977513 2.76686 7.2308263 1.847781 1.9127739 4.288507 2.8691609 7.322178 2.8691609s5.488186-.956387 7.363547-2.8691609c1.87536-1.912774 2.81304-4.4540307 2.81304-7.6237704V51.5236252l-.004812-.3930152c-.073783-2.988567-.99607-5.4124814-2.76686-7.2717432-1.847782-1.9400992-4.316086-2.9101489-7.404915-2.9101489zm-53.30305.0415056c2.476678 0 4.496351.6610709 6.059017 1.9832129 1.562667 1.3221419 2.344 3.020187 2.344 5.0941351 0 2.0739482-.781333 3.7590311-2.344 5.0552486-1.562666 1.2962176-3.582339 1.9443264-6.059017 1.9443264h-11.587319c-.294843 0-.442264-.1296217-.442264-.3888652V41.3790887c0-.2592435.147421-.3888652.442264-.3888652h11.587319zm96.719751 49.3282024c.294843 0 .545459-.0924107.751849-.2772322.20639-.1848214.309585-.4092474.309585-.6732781V64.9731565c0-.2640307.147421-.396046.442264-.396046h10.221403c3.950893 0 7.444779-.6996812 10.481659-2.0990435 3.03688-1.3993623 5.395622-3.3663905 7.076225-5.9010845 1.680604-2.534694 2.520905-5.465434 2.520905-8.7922199 0-3.3795921-.810817-6.3763397-2.432452-8.9902429s-3.906666-4.6337375-6.855093-6.0595029c-2.948428-1.4257654-6.368603-2.1386481-10.260527-2.1386481h-22.604797c-.294843 0-.545459.0924107-.751849.2772322-.20639.1848214-.309585.4092474-.309585.6732781v57.8210366c0 .2640307.103195.4884567.309585.6732781.20639.1848215.457006.2772322.751849.2772322h10.348979zm1.52788-35.2512794c-.310964 0-.466446-.1209357-.466446-.3628073V41.3530308c0-.2418716.155482-.3628073.466446-.3628073h9.508848c2.860872 0 5.162009.6530531 6.90341 1.9591594 1.7414 1.3061062 2.612101 3.0233941 2.612101 5.1518636 0 2.0800951-.870701 3.7611023-2.612101 5.0430214-1.741401 1.2819191-4.042538 1.9228786-6.90341 1.9228786h-9.508848zM501.356079 91c6.958288 0 12.471847-1.5477188 16.540677-4.6431564C521.965585 83.261406 524 79.0442272 524 73.7053073c0-3.5782123-.958239-6.4890596-2.874716-8.7325419-1.916478-2.2434823-4.06883-3.9331937-6.457056-5.0691341-2.388226-1.1359404-5.675722-2.4422719-9.862489-3.9189944-3.773987-1.3063315-6.56025-2.3428771-8.358791-3.1096369-1.798541-.7667598-3.154817-1.6329143-4.068829-2.5984637-.914013-.9655493-1.371019-2.1582868-1.371019-3.5782123 0-1.9878957.781333-3.5498138 2.343999-4.6857542 1.562667-1.1359404 3.729761-1.7039106 6.501282-1.7039106 3.538113 0 6.324377.8377561 8.358791 2.5132682 2.034415 1.6755121 3.051623 3.7060056 3.051623 6.0914804v.6815643c0 .2839851.103195.5253724.309584.724162.20639.1987895.457007.2981843.751849.2981843h10.172074c.294843 0 .545459-.0993948.751849-.2981843.20639-.1987896.309585-.4401769.309585-.724162v-1.277933c0-3.6350093-.987723-6.8298417-2.963169-9.5844972-1.975447-2.7546555-4.717484-4.898743-8.226112-6.4322626C508.859826 30.7667598 504.864708 30 500.383098 30c-4.245735 0-7.990237.6815642-11.233507 2.0446927-3.24327 1.3631285-5.778917 3.3226257-7.606942 5.8784917-1.828025 2.5558659-2.742038 5.5377095-2.742038 8.9455307 0 3.4646182.928755 6.3754655 2.786264 8.7325419 1.857509 2.3570763 4.157282 4.2171788 6.89932 5.5803072 2.742037 1.3631285 6.088502 2.6978585 10.039394 4.00419 3.538113 1.2495344 6.117987 2.229283 7.739622 2.9392458 1.621634.7099628 2.9042 1.5335196 3.847697 2.4706704.943497.9371508 1.415245 2.0872905 1.415245 3.450419 0 1.8743017-.766591 3.450419-2.299773 4.7283519-1.533182 1.277933-3.86244 1.9168995-6.987773 1.9168995-3.715018 0-6.663445-.780959-8.845281-2.3428771-2.181836-1.5619181-3.272754-3.4788175-3.272754-5.7506983v-1.277933c0-.2839851-.103195-.5253724-.309585-.724162-.20639-.1987896-.457006-.2981844-.751849-.2981844h-10.083621c-.294843 0-.545459.0993948-.751849.2981844-.20639.1987896-.309585.4401769-.309585.724162v1.8743017c0 3.5782123.958239 6.7162477 2.874717 9.4141061 1.916477 2.6978585 4.643773 4.7709497 8.181885 6.2192738C492.510798 90.275838 496.638596 91 501.356079 91z"/>
    <mask id="b" fill="#fff">
      <path id="a" d="M54.623435 1.73047191l42.5 25.56299289C99.5288408 28.7402736 101 31.3419242 101 34.1489213v51.7021574c0 2.8069971-1.4711592 5.4086477-3.876565 6.8554565l-42.5 25.5629928c-2.5371624 1.526058-5.7097076 1.526058-8.24687 0L3.87656503 92.7065352C1.47115919 91.2597264 0 88.6580758 0 85.8510787V34.1489213c0-2.8069971 1.47115919-5.4086477 3.87656503-6.8554565L46.376565 1.73047191c2.5371624-1.52605798 5.7097076-1.52605798 8.24687 0z"/>
    </mask>
    <use fill="#4100E1" xlink:href="#a"/>
    <path fill="#000" fill-opacity=".2" d="M117.315385 120.11932L33.3003285 63.1168831l-52.7234054 57.6623379z" mask="url(#b)" style="mix-blend-mode:overlay"/>
    <path fill="#FFF" fill-opacity=".8" d="M117.315385 120L33.4076923 63.0247948 49.0335237.77922078z" mask="url(#b)" style="mix-blend-mode:overlay"/>
    <path fill="#FFF" fill-opacity=".2" d="M-19.4230769 37.7200577l52.7234054 25.3968254L48.9461538.77922078z" mask="url(#b)" style="mix-blend-mode:overlay"/>
    <path fill="#FFF" fill-opacity=".4" d="M118.092308 120V.77922078H49.7230769zM-19.4230769 37.4025974l52.8307692 25.4761905-52.8307692 57.9004331z" mask="url(#b)" style="mix-blend-mode:overlay"/>
    <path fill="#FFF" d="M49.9997086 14.025974c4.0990407 0 7.4219697 3.3521763 7.4219697 7.4872953 0 3.6086299-2.5306361 6.6209956-5.8992833 7.3295744l-.0004649 11.7962806c7.573917.8714935 13.7414901 6.4151051 15.6008471 13.7034213l9.9088255-.0004364c.7732391-3.3020922 3.7138326-5.7593876 7.2233507-5.7593876 4.0990407 0 7.4219697 3.3521763 7.4219697 7.4872953 0 4.1351191-3.322929 7.4872954-7.4219697 7.4872954-3.6442876 0-6.6751169-2.649645-7.3027517-6.1434459l-9.316543-.0007104c.0414541.506662.062593 1.0191356.062593 1.5365899 0 10.1787545-8.1795175 18.4302654-18.2694638 18.4302654-4.3831814 0-8.4058406-1.5571651-11.554045-4.1530392l-8.2114736 8.2835043c.9391189 1.2541558 1.4960547 2.8158267 1.4960547 4.5087218 0 4.135119-3.322929 7.4872953-7.4219697 7.4872953s-7.4219697-3.3521763-7.4219697-7.4872953 3.322929-7.4872953 7.4219697-7.4872953c1.3172986 0 2.5544425.346203 3.6269034.9533363l8.3207541-8.3924837c-2.8177341-3.2429526-4.5256878-7.4917686-4.5256878-12.1430096 0-9.8567905 7.670249-17.9063303 17.3179318-18.4056981l-.0002335-11.7012041c-3.3686472-.7085788-5.8992834-3.7209445-5.8992834-7.3295744 0-4.135119 3.322929-7.4872953 7.4219697-7.4872953z"/>
  </g>
</svg>
