<?xml version="1.0" encoding="UTF-8" standalone="no"?>
<svg
   xmlns:dc="http://purl.org/dc/elements/1.1/"
   xmlns:cc="http://creativecommons.org/ns#"
   xmlns:rdf="http://www.w3.org/1999/02/22-rdf-syntax-ns#"
   xmlns:svg="http://www.w3.org/2000/svg"
   xmlns="http://www.w3.org/2000/svg"
   xmlns:sodipodi="http://sodipodi.sourceforge.net/DTD/sodipodi-0.dtd"
   xmlns:inkscape="http://www.inkscape.org/namespaces/inkscape"
   id="Laag_1"
   data-name="Laag 1"
   viewBox="0 0 1221.3633 159.47999"
   version="1.1"
   sodipodi:docname="interops-logo-large.svg"
   width="1221.3633"
   height="159.48"
   inkscape:version="0.92.2 5c3e80d, 2017-08-06">
  <metadata
     id="metadata39">
    <rdf:RDF>
      <cc:Work
         rdf:about="">
        <dc:format>image/svg+xml</dc:format>
        <dc:type
           rdf:resource="http://purl.org/dc/dcmitype/StillImage" />
      </cc:Work>
    </rdf:RDF>
  </metadata>
  <sodipodi:namedview
     pagecolor="#ffffff"
     bordercolor="#666666"
     borderopacity="1"
     objecttolerance="10"
     gridtolerance="10"
     guidetolerance="10"
     inkscape:pageopacity="0"
     inkscape:pageshadow="2"
     inkscape:window-width="640"
     inkscape:window-height="480"
     id="namedview37"
     showgrid="false"
     inkscape:zoom="0.19476277"
     inkscape:cx="580.94501"
     inkscape:cy="68.839981"
     inkscape:window-x="0"
     inkscape:window-y="0"
     inkscape:window-maximized="0"
     inkscape:current-layer="Laag_1" />
  <defs
     id="defs4">
    <style
       id="style2">.cls-1{fill:#2e96d3;}.cls-2,.cls-3{fill:#dbbe23;}.cls-2{stroke:#dbbe23;stroke-miterlimit:10;stroke-width:2px;}</style>
  </defs>
  <path
     class="cls-1"
     d="M 19.35,4.55 V 154 H 0 V 4.55 Z"
     id="path6"
     inkscape:connector-curvature="0"
     style="fill:#2e96d3" />
  <path
     class="cls-1"
     d="M 216.86,4.55 V 159 h -0.59 L 110.43,47.54 l 0.4,106.45 H 91.3 V 0 h 1 l 105.63,112.65 -0.4,-108.1 z"
     id="path8"
     inkscape:connector-curvature="0"
     style="fill:#2e96d3" />
  <path
     class="cls-1"
     d="M 373.92,4.55 V 23.77 H 335.26 V 154 H 315.92 V 23.77 H 278.25 V 4.55 Z"
     id="path10"
     inkscape:connector-curvature="0"
     style="fill:#2e96d3" />
  <path
     class="cls-1"
     d="M 529,4.55 V 23.77 H 454.64 V 69.25 H 521 v 19.22 h -66.36 v 46.09 h 77.14 V 154 H 435.31 V 4.55 Z"
     id="path12"
     inkscape:connector-curvature="0"
     style="fill:#2e96d3" />
  <path
     class="cls-1"
     d="M 675.28,154 641.4,98.8 a 40.05,40.05 0 0 1 -4.79,0.21 h -21.32 v 55 H 596 V 4.55 h 38.47 a 61.78,61.78 0 0 1 26.31,5.37 41.78,41.78 0 0 1 18.14,15.82 q 6.57,10.42 6.58,25.11 a 55.42,55.42 0 0 1 -5.88,25.42 38.91,38.91 0 0 1 -18,17.57 L 697.8,154 Z M 658.64,71.12 a 30,30 0 0 0 6.87,-19.43 31.4,31.4 0 0 0 -2.89,-13 A 25.2,25.2 0 0 0 653.46,28 q -6.29,-4.23 -15.85,-4.24 h -22.32 v 55.81 h 20.93 q 15.54,0.01 22.42,-8.46 z"
     id="path14"
     inkscape:connector-curvature="0"
     style="fill:#2e96d3" />
  <path
     class="cls-1"
     d="m 1049.48,16.74 q 13.26,12.21 13.26,34.11 a 57.26,57.26 0 0 1 -4.88,23.56 40,40 0 0 1 -15.75,17.78 Q 1031.25,99 1014.7,99 h -21.32 v 55 H 974 V 4.55 h 38.67 q 23.56,0 36.81,12.19 z M 1031.55,75 a 25.93,25.93 0 0 0 9.26,-11.06 32.12,32.12 0 0 0 2.79,-12.71 29.59,29.59 0 0 0 -6.77,-19.12 q -6.78,-8.37 -21.13,-8.37 h -22.32 v 55.81 h 21.32 q 10.36,0.03 16.85,-4.55 z"
     id="path16"
     inkscape:connector-curvature="0"
     style="fill:#2e96d3" />
  <path
     class="cls-1"
     d="m 1195.68,24.18 a 56.59,56.59 0 0 0 -16.54,-2.68 q -11.78,0 -18.64,5.48 -6.86,5.48 -6.88,15 0,9.3 8.07,15.19 8.07,5.89 23,11.68 a 101.74,101.74 0 0 1 18.83,9 39.27,39.27 0 0 1 12.76,13.44 q 5.07,8.58 5.08,21.81 a 41.65,41.65 0 0 1 -5.78,21.7 40.55,40.55 0 0 1 -16.44,15.3 q -10.67,5.58 -25,5.58 a 75.24,75.24 0 0 1 -25.71,-4.45 85.9,85.9 0 0 1 -21.72,-11.26 l 8.57,-15.92 a 69,69 0 0 0 17.74,9.82 53.44,53.44 0 0 0 19.33,4 33.91,33.91 0 0 0 20.23,-6.2 q 8.67,-6.19 8.67,-18.4 0,-10.33 -7.28,-16.43 -7.28,-6.1 -20.43,-11.47 a 163.47,163.47 0 0 1 -20.23,-9.3 43.22,43.22 0 0 1 -13.85,-12.51 q -5.78,-7.95 -5.78,-19.95 0,-17.56 11.86,-28.42 11.86,-10.86 30.8,-11.47 a 82.45,82.45 0 0 1 43.25,12 l -7.38,15.5 a 85.59,85.59 0 0 0 -16.53,-7.04 z"
     id="path18"
     inkscape:connector-curvature="0"
     style="fill:#2e96d3" />
  <circle
     class="cls-1"
     cx="834.89001"
     cy="81.149994"
     r="78.330002"
     id="circle20"
     style="fill:#2e96d3" />
  <line
     class="cls-2"
     x1="794.17004"
     y1="124.20001"
     x2="846.70996"
     y2="71.670013"
     id="line22"
     style="fill:#dbbe23;stroke:#dbbe23;stroke-width:2px;stroke-miterlimit:10" />
  <line
     class="cls-2"
     x1="830.22998"
     y1="88.140015"
     x2="830.22998"
     y2="32.190002"
     id="line24"
     style="fill:#dbbe23;stroke:#dbbe23;stroke-width:2px;stroke-miterlimit:10" />
  <line
     class="cls-2"
     x1="846.40002"
     y1="71.359985"
     x2="886.81006"
     y2="71.359985"
     id="line26"
     style="fill:#dbbe23;stroke:#dbbe23;stroke-width:2px;stroke-miterlimit:10" />
  <circle
     class="cls-3"
     cx="830.22998"
     cy="32.190002"
     r="4.3499999"
     id="circle28"
     style="fill:#dbbe23" />
  <circle
     class="cls-3"
     cx="847.02002"
     cy="72.600006"
     r="4.3499999"
     id="circle30"
     style="fill:#dbbe23" />
  <circle
     class="cls-3"
     cx="886.18005"
     cy="71.670013"
     r="4.3499999"
     id="circle32"
     style="fill:#dbbe23" />
  <circle
     class="cls-3"
     cx="794.17004"
     cy="123.26999"
     r="4.3499999"
     id="circle34"
     style="fill:#dbbe23" />
</svg>
